HIERARCHY
ROOT Hips
{
	OFFSET 0.000000 100.481300 0.000000
	CHANNELS 6 Xposition Yposition Zposition Xrotation Yrotation Zrotation 
	JOINT Spine
	{
		OFFSET -0.279200 12.230698 -2.892100
		CHANNELS 3 Xrotation Yrotation Zrotation
		JOINT Spine1
		{
			OFFSET -0.232667 10.192268 -1.242267
			CHANNELS 3 Xrotation Yrotation Zrotation
			JOINT Spine1_split
			{
				OFFSET -0.232667 10.192268 -1.242267
				CHANNELS 3 Xrotation Yrotation Zrotation
				JOINT Spine2
				{
					OFFSET -0.232667 10.192268 -1.242267
					CHANNELS 3 Xrotation Yrotation Zrotation
					JOINT Neck
					{
						OFFSET -0.418800 17.814194 8.416900
						CHANNELS 3 Xrotation Yrotation Zrotation
						JOINT Head
						{
							OFFSET 0.000000 7.031097 3.806800
							CHANNELS 3 Xrotation Yrotation Zrotation
							JOINT HeadTop_End
							{
								OFFSET 0.000000 24.646606 12.978600
								CHANNELS 3 Xrotation Yrotation Zrotation
								End Site
								{
									OFFSET 0.000000 0.000000 0.000000
								}
							}
						}
					}
					JOINT LeftShoulder
					{
						OFFSET 8.476499 7.247704 -3.868750
						CHANNELS 3 Xrotation Yrotation Zrotation
						JOINT LeftShoulder_split
						{
							OFFSET 8.476499 7.247704 -3.868750
							CHANNELS 3 Xrotation Yrotation Zrotation
							JOINT LeftArm
							{
								OFFSET 9.308998 -2.777710 0.208600
								CHANNELS 3 Xrotation Yrotation Zrotation
								JOINT LeftForeArm
								{
									OFFSET 29.972298 0.000000 0.000000
									CHANNELS 3 Xrotation Yrotation Zrotation
									JOINT LeftHand
									{
										OFFSET 26.026505 0.000000 0.000000
										CHANNELS 3 Xrotation Yrotation Zrotation
										JOINT LeftHandThumb1
										{
											OFFSET 12.240501 -7.147949 9.207150
											CHANNELS 3 Xrotation Yrotation Zrotation
											JOINT LeftHandThumb2
											{
												OFFSET 4.138618 -2.389435 2.389433
												CHANNELS 3 Xrotation Yrotation Zrotation
												JOINT LeftHandThumb3
												{
													OFFSET 2.726913 -1.574387 1.574386
													CHANNELS 3 Xrotation Yrotation Zrotation
													JOINT LeftHandThumb4
													{
														OFFSET 3.941010 -2.275345 2.275342
														CHANNELS 3 Xrotation Yrotation Zrotation
														End Site
														{
															OFFSET 0.000000 0.000000 0.000000
														}
													}
												}
											}
										}
										JOINT LeftHandIndex1
										{
											OFFSET 24.424698 -1.985611 5.953459
											CHANNELS 3 Xrotation Yrotation Zrotation
											JOINT LeftHandIndex2
											{
												OFFSET 6.426697 0.000000 0.000000
												CHANNELS 3 Xrotation Yrotation Zrotation
												JOINT LeftHandIndex3
												{
													OFFSET 5.337898 0.000000 0.000000
													CHANNELS 3 Xrotation Yrotation Zrotation
													JOINT LeftHandIndex4
													{
														OFFSET 4.409401 0.000000 0.000000
														CHANNELS 3 Xrotation Yrotation Zrotation
														End Site
														{
															OFFSET 0.000000 0.000000 0.000000
														}
													}
												}
											}
										}
										JOINT LeftHandMiddle1
										{
											OFFSET 23.810104 0.000000 0.000000
											CHANNELS 3 Xrotation Yrotation Zrotation
											JOINT LeftHandMiddle2
											{
												OFFSET 7.176498 0.000000 0.000000
												CHANNELS 3 Xrotation Yrotation Zrotation
												JOINT LeftHandMiddle3
												{
													OFFSET 6.774902 0.000000 0.000000
													CHANNELS 3 Xrotation Yrotation Zrotation
													JOINT LeftHandMiddle4
													{
														OFFSET 5.403328 0.000000 0.000000
														CHANNELS 3 Xrotation Yrotation Zrotation
														End Site
														{
															OFFSET 0.000000 0.000000 0.000000
														}
													}
												}
											}
										}
										JOINT LeftHandRing1
										{
											OFFSET 22.908401 -0.839279 -6.020567
											CHANNELS 3 Xrotation Yrotation Zrotation
											JOINT LeftHandRing2
											{
												OFFSET 6.337502 0.000000 0.000000
												CHANNELS 3 Xrotation Yrotation Zrotation
												JOINT LeftHandRing3
												{
													OFFSET 5.779297 0.000000 0.000000
													CHANNELS 3 Xrotation Yrotation Zrotation
													JOINT LeftHandRing4
													{
														OFFSET 4.965698 0.000000 0.000000
														CHANNELS 3 Xrotation Yrotation Zrotation
														End Site
														{
															OFFSET 0.000000 0.000000 0.000000
														}
													}
												}
											}
										}
										JOINT LeftHandPinky1
										{
											OFFSET 20.037003 -1.530319 -10.950146
											CHANNELS 3 Xrotation Yrotation Zrotation
											JOINT LeftHandPinky2
											{
												OFFSET 5.254700 0.000000 0.000000
												CHANNELS 3 Xrotation Yrotation Zrotation
												JOINT LeftHandPinky3
												{
													OFFSET 4.810204 0.000000 0.000000
													CHANNELS 3 Xrotation Yrotation Zrotation
													JOINT LeftHandPinky4
													{
														OFFSET 3.647202 0.000000 0.000000
														CHANNELS 3 Xrotation Yrotation Zrotation
														End Site
														{
															OFFSET 0.000000 0.000000 0.000000
														}
													}
												}
											}
										}
									}
								}
							}
						}
					}
					JOINT RightShoulder
					{
						OFFSET -7.570500 7.247704 -3.868750
						CHANNELS 3 Xrotation Yrotation Zrotation
						JOINT RightShoulder_split
						{
							OFFSET -7.570500 7.247704 -3.868750
							CHANNELS 3 Xrotation Yrotation Zrotation
							JOINT RightArm
							{
								OFFSET -9.308998 -2.777710 0.208500
								CHANNELS 3 Xrotation Yrotation Zrotation
								JOINT RightForeArm
								{
									OFFSET -29.972300 0.000000 0.000000
									CHANNELS 3 Xrotation Yrotation Zrotation
									JOINT RightHand
									{
										OFFSET -26.026505 0.000000 0.000000
										CHANNELS 3 Xrotation Yrotation Zrotation
										JOINT RightHandThumb1
										{
											OFFSET -12.240601 -7.148026 9.207092
											CHANNELS 3 Xrotation Yrotation Zrotation
											JOINT RightHandThumb2
											{
												OFFSET -4.138618 -2.389435 2.389433
												CHANNELS 3 Xrotation Yrotation Zrotation
												JOINT RightHandThumb3
												{
													OFFSET -2.726974 -1.574417 1.574421
													CHANNELS 3 Xrotation Yrotation Zrotation
													JOINT RightHandThumb4
													{
														OFFSET -3.941010 -2.275345 2.275343
														CHANNELS 3 Xrotation Yrotation Zrotation
														End Site
														{
															OFFSET 0.000000 0.000000 0.000000
														}
													}
												}
											}
										}
										JOINT RightHandIndex1
										{
											OFFSET -24.424698 -1.985657 5.953444
											CHANNELS 3 Xrotation Yrotation Zrotation
											JOINT RightHandIndex2
											{
												OFFSET -6.426697 0.000000 0.000000
												CHANNELS 3 Xrotation Yrotation Zrotation
												JOINT RightHandIndex3
												{
													OFFSET -5.337898 0.000000 0.000000
													CHANNELS 3 Xrotation Yrotation Zrotation
													JOINT RightHandIndex4
													{
														OFFSET -4.409401 0.000000 0.000000
														CHANNELS 3 Xrotation Yrotation Zrotation
														End Site
														{
															OFFSET 0.000000 0.000000 0.000000
														}
													}
												}
											}
										}
										JOINT RightHandMiddle1
										{
											OFFSET -23.810097 0.000000 0.000000
											CHANNELS 3 Xrotation Yrotation Zrotation
											JOINT RightHandMiddle2
											{
												OFFSET -7.176498 0.000000 0.000000
												CHANNELS 3 Xrotation Yrotation Zrotation
												JOINT RightHandMiddle3
												{
													OFFSET -6.774902 0.000000 0.000000
													CHANNELS 3 Xrotation Yrotation Zrotation
													JOINT RightHandMiddle4
													{
														OFFSET -5.403328 0.000000 0.000000
														CHANNELS 3 Xrotation Yrotation Zrotation
														End Site
														{
															OFFSET 0.000000 0.000000 0.000000
														}
													}
												}
											}
										}
										JOINT RightHandRing1
										{
											OFFSET -22.908302 -0.839325 -6.020576
											CHANNELS 3 Xrotation Yrotation Zrotation
											JOINT RightHandRing2
											{
												OFFSET -6.337502 0.000000 0.000000
												CHANNELS 3 Xrotation Yrotation Zrotation
												JOINT RightHandRing3
												{
													OFFSET -5.779297 0.000000 0.000000
													CHANNELS 3 Xrotation Yrotation Zrotation
													JOINT RightHandRing4
													{
														OFFSET -4.965698 0.000000 0.000000
														CHANNELS 3 Xrotation Yrotation Zrotation
														End Site
														{
															OFFSET 0.000000 0.000000 0.000000
														}
													}
												}
											}
										}
										JOINT RightHandPinky1
										{
											OFFSET -20.037003 -1.530334 -10.950259
											CHANNELS 3 Xrotation Yrotation Zrotation
											JOINT RightHandPinky2
											{
												OFFSET -5.254700 0.000000 0.000000
												CHANNELS 3 Xrotation Yrotation Zrotation
												JOINT RightHandPinky3
												{
													OFFSET -4.810204 0.000000 0.000000
													CHANNELS 3 Xrotation Yrotation Zrotation
													JOINT RightHandPinky4
													{
														OFFSET -3.647202 0.000000 0.000000
														CHANNELS 3 Xrotation Yrotation Zrotation
														End Site
														{
															OFFSET 0.000000 0.000000 0.000000
														}
													}
												}
											}
										}
									}
								}
							}
						}
					}
				}
			}
		}
	}
	JOINT LeftUpLeg
	{
		OFFSET 15.427100 -6.655098 0.678600
		CHANNELS 3 Xrotation Yrotation Zrotation
		JOINT LeftLeg
		{
			OFFSET 4.081073 -39.591068 13.024000
			CHANNELS 3 Xrotation Yrotation Zrotation
			JOINT LeftFoot
			{
				OFFSET -4.081074 -37.707932 -15.979700
				CHANNELS 3 Xrotation Yrotation Zrotation
				JOINT LeftToeBase
				{
					OFFSET 5.346399 -15.068900 20.645000
					CHANNELS 3 Xrotation Yrotation Zrotation
					JOINT LeftToe_End
					{
						OFFSET 2.754700 0.931300 11.300900
						CHANNELS 3 Xrotation Yrotation Zrotation
						End Site
						{
							OFFSET 0.000000 0.000000 0.000000
						}
					}
				}
			}
		}
	}
	JOINT RightUpLeg
	{
		OFFSET -15.569500 -6.655098 0.678600
		CHANNELS 3 Xrotation Yrotation Zrotation
		JOINT RightLeg
		{
			OFFSET -4.081825 -39.591045 13.023800
			CHANNELS 3 Xrotation Yrotation Zrotation
			JOINT RightFoot
			{
				OFFSET 4.081824 -37.707954 -15.979600
				CHANNELS 3 Xrotation Yrotation Zrotation
				JOINT RightToeBase
				{
					OFFSET -5.346400 -15.068900 20.645000
					CHANNELS 3 Xrotation Yrotation Zrotation
					JOINT RightToe_End
					{
						OFFSET -2.754700 0.931300 11.300900
						CHANNELS 3 Xrotation Yrotation Zrotation
						End Site
						{
							OFFSET 0.000000 0.000000 0.000000
						}
					}
				}
			}
		}
	}
}
MOTION
Frames: 4
Frame Time: 0.016667
4.877068 89.045242 7.786703 -31.783742 -38.105636 -22.189519 11.244276 -4.937604 -0.064323 3.545657 -2.400652 -0.151373 0.000000 0.000000 0.000000 3.557025 -2.388382 -0.108336 1.348022 0.319770 -0.743109 -7.666565 -1.011466 4.648233 -0.000000 -0.000001 -0.000000 0.576508 -16.606948 -10.307152 0.000000 0.000000 0.000000 -20.089181 4.591479 -37.031223 0.000100 -67.698882 0.000098 -41.746693 -11.632960 -7.621748 -22.783320 -14.798008 12.273498 3.061427 10.434212 14.851292 3.493392 44.556155 6.590310 -0.000001 -0.000000 0.000003 2.077611 -2.776287 26.093715 3.254376 5.245076 -63.613896 1.613334 4.038122 -43.542439 -0.000001 0.000000 -0.000002 -0.902177 3.834331 20.965944 2.978792 5.099692 -60.557892 3.257253 5.246495 -63.645431 0.000000 0.000000 0.000000 -6.120864 13.236932 27.840223 3.788281 5.476554 -69.323688 1.278686 3.654637 -38.556548 -0.000000 -0.000001 0.000001 -10.441725 21.141334 29.056567 0.279097 1.788360 -17.739139 1.534505 3.953719 -42.411192 -0.000002 0.000000 0.000000 0.014988 14.189126 15.480072 0.000000 0.000000 0.000000 -11.472635 -5.400277 60.640387 0.000017 39.601024 -0.000020 -3.018905 -4.350303 23.974261 -20.073132 16.089472 -24.921337 8.794359 -40.952749 -1.386064 -0.282970 -28.729070 -23.321211 -0.000001 -0.000000 0.000001 1.096414 -5.220439 38.986344 3.071097 -4.379321 70.068520 0.158018 1.204123 -14.952683 0.000003 -0.000001 0.000000 2.986231 -6.607904 70.685218 0.640894 -2.359616 30.386733 0.145844 1.157592 -14.362016 -0.000003 -0.000001 -0.000000 5.905024 -7.187190 80.752944 0.324122 -1.708679 21.480950 0.002679 -0.158676 1.948212 -0.000000 -0.000002 -0.000001 2.049596 -22.469453 97.460222 1.111361 -3.021275 40.384002 3.356367 -4.472206 73.763960 -0.000000 0.000000 -0.000001 3.020782 12.412210 2.741885 30.322174 -1.311942 -4.360139 -10.261788 8.331747 7.605759 -0.460939 0.000003 0.000019 -0.000000 0.000002 0.000000 16.017711 -8.949669 -7.652352 28.370085 5.601546 -5.686809 -18.240551 -12.299398 6.312918 0.425037 -0.000746 0.311886 -0.000000 -0.000001 -0.000000 
5.274662 89.034248 8.080965 -32.300528 -39.138183 -22.973649 11.240934 -4.928288 -0.102832 3.545656 -2.400652 -0.151373 0.000000 0.000000 0.000000 3.557025 -2.388375 -0.108335 1.314813 0.322523 -0.750641 -7.907086 -0.936240 4.513180 -0.000000 0.000002 0.000000 0.579611 -16.606975 -10.288915 0.000000 0.000000 0.000000 -19.994009 4.524801 -36.978631 -0.000006 -67.695193 -0.000003 -41.851445 -11.691157 -7.561895 -22.783319 -14.798008 12.273498 3.079731 10.434807 14.836334 3.510091 44.557569 6.575768 -0.000002 0.000003 -0.000004 2.045399 -2.802596 26.067082 3.253669 5.244719 -63.605986 1.613334 4.038121 -43.542435 0.000001 0.000000 -0.000004 -0.893468 3.814334 20.948161 2.979439 5.100048 -60.565104 3.259670 5.247714 -63.671959 0.000000 0.000000 0.000002 -6.128908 13.260715 27.829030 3.784882 5.475302 -69.288342 1.278686 3.654637 -38.556548 0.000000 0.000000 -0.000001 -10.387962 21.193322 29.075234 0.279683 1.790212 -17.757993 1.535091 3.954367 -42.419812 -0.000000 0.000000 0.000000 0.007978 14.220993 15.529859 0.000000 0.000000 0.000000 -11.429892 -5.404809 60.569967 0.000018 39.667198 -0.000025 -3.063975 -4.381495 23.963514 -20.073132 16.089467 -24.921339 8.794359 -40.952749 -1.386064 -0.303361 -28.706646 -23.353359 -0.000001 -0.000000 0.000000 1.106969 -5.237089 39.169714 3.083388 -4.383750 70.229439 0.158021 1.204121 -14.952654 0.000000 -0.000001 0.000001 2.981889 -6.606650 70.757877 0.640851 -2.359557 30.385965 0.145795 1.157359 -14.359020 0.000002 0.000001 -0.000001 5.895814 -7.186295 80.734748 0.324316 -1.709209 21.487804 0.002683 -0.158673 1.948211 -0.000004 0.000001 -0.000001 2.105635 -22.468963 97.580304 1.111361 -3.021280 40.384006 3.356368 -4.472202 73.763960 0.000001 -0.000001 0.000000 3.142675 12.656257 2.559046 30.336712 -1.868256 -4.817688 -10.589334 9.749084 8.646496 -0.168021 0.002427 -0.292508 -0.000000 0.000000 -0.000000 15.513284 -8.789702 -7.990958 28.529000 5.081299 -5.920347 -17.717427 -12.440234 6.781033 0.355672 -0.000543 0.261005 0.000000 -0.000002 -0.000000 
5.662893 89.025360 8.378624 -32.845970 -40.167219 -23.776408 11.236993 -4.917200 -0.148548 3.545656 -2.400642 -0.151372 0.000000 0.000000 0.000000 3.557024 -2.388379 -0.108336 1.278867 0.332803 -0.774661 -8.164870 -0.794816 4.357008 0.000001 -0.000001 -0.000000 0.580765 -16.582634 -10.279780 0.000000 0.000000 0.000000 -19.895779 4.421318 -36.921797 0.000057 -67.679450 0.000058 -41.961038 -11.751903 -7.500594 -22.783319 -14.798006 12.273496 3.099937 10.435452 14.819815 3.510867 44.557518 6.573889 -0.000003 0.000007 0.000001 2.025250 -2.817828 26.042792 3.253563 5.244696 -63.604989 1.613335 4.038121 -43.542435 -0.000000 0.000000 -0.000004 -0.885634 3.795368 20.937784 2.979683 5.100185 -60.567788 3.261641 5.248680 -63.693310 0.000000 -0.000001 0.000001 -6.132735 13.270841 27.825627 3.782923 5.474569 -69.267817 1.278686 3.654637 -38.556544 -0.000001 -0.000000 0.000002 -10.351097 21.229440 29.094424 0.279733 1.790424 -17.760198 1.535296 3.954582 -42.422674 -0.000001 0.000000 -0.000000 0.005023 14.258427 15.543485 0.000000 0.000000 0.000000 -11.398960 -5.416199 60.537510 -0.000023 39.702940 0.000025 -3.105299 -4.392609 23.950470 -20.073135 16.089475 -24.921330 8.794361 -40.952749 -1.386064 -0.311590 -28.697545 -23.366347 -0.000000 0.000001 0.000001 1.117281 -5.251228 39.338358 3.100184 -4.389731 70.448832 0.158029 1.204127 -14.952662 0.000005 -0.000002 0.000001 2.976173 -6.604924 70.820544 0.641034 -2.359866 30.390285 0.145752 1.157187 -14.356873 -0.000004 0.000000 0.000001 5.886029 -7.185539 80.710863 0.324510 -1.709659 21.493810 0.002684 -0.158675 1.948210 -0.000002 -0.000002 0.000000 2.138377 -22.467810 97.645996 1.111360 -3.021277 40.384002 3.356370 -4.472207 73.763953 0.000001 0.000001 0.000000 3.345369 12.913938 2.229141 30.260347 -2.288652 -5.112422 -11.161113 11.063083 9.913955 0.202233 0.001647 -0.464252 0.000000 0.000002 -0.000000 14.936280 -8.756249 -8.344137 28.714706 5.098785 -5.994983 -17.044828 -13.213194 7.042783 0.223861 -0.000344 0.215964 0.000000 -0.000000 0.000000 
6.044443 89.012543 8.695950 -33.417759 -41.185771 -24.609394 11.233628 -4.908754 -0.187752 3.545656 -2.400647 -0.151373 0.000000 0.000000 0.000000 3.557024 -2.388380 -0.108336 1.244411 0.349207 -0.810673 -8.403957 -0.613163 4.203381 -0.000001 0.000001 -0.000000 0.581072 -16.531952 -10.273114 0.000000 0.000000 0.000000 -19.827091 4.304716 -36.893854 0.000019 -67.649131 0.000026 -42.037864 -11.798976 -7.458960 -22.783317 -14.798006 12.273496 3.120373 10.436113 14.803066 3.500047 44.556418 6.581373 -0.000001 0.000000 -0.000003 2.016320 -2.822800 26.020128 3.253966 5.244876 -63.609360 1.613336 4.038121 -43.542432 0.000001 -0.000000 -0.000002 -0.880734 3.784764 20.924180 2.979480 5.100034 -60.565234 3.263082 5.249392 -63.709279 0.000001 0.000000 0.000005 -6.133162 13.271902 27.825376 3.781452 5.474029 -69.252463 1.278686 3.654637 -38.556548 -0.000000 0.000000 0.000002 -10.329204 21.252299 29.106650 0.279461 1.789525 -17.750967 1.535122 3.954388 -42.420153 -0.000002 -0.000000 -0.000000 0.004873 14.295183 15.534097 0.000000 0.000000 0.000000 -11.379680 -5.432812 60.532080 -0.000001 39.716734 -0.000000 -3.137182 -4.390537 23.938408 -20.073135 16.089469 -24.921335 8.794357 -40.952752 -1.386067 -0.307651 -28.701879 -23.360162 -0.000001 0.000001 0.000003 1.125948 -5.261670 39.465537 3.114854 -4.394907 70.640528 0.158044 1.204118 -14.952677 -0.000003 -0.000000 -0.000000 2.971172 -6.603354 70.859593 0.641252 -2.360283 30.395964 0.145746 1.157076 -14.355394 0.000001 0.000002 -0.000001 5.878792 -7.185231 80.685346 0.324620 -1.709932 21.497583 0.002684 -0.158673 1.948209 -0.000001 -0.000001 -0.000001 2.141799 -22.466794 97.647519 1.111360 -3.021274 40.384002 3.356367 -4.472205 73.763960 -0.000002 -0.000000 0.000001 3.576579 13.130718 2.037126 30.094954 -2.716490 -5.451468 -11.561696 12.440868 10.536690 0.280140 0.002073 -0.519519 -0.000000 -0.000000 -0.000000 14.355412 -8.774709 -8.663409 28.897981 4.979963 -5.982803 -16.314921 -14.648222 7.100507 0.069468 -0.000037 0.074046 0.000000 -0.000004 0.000000 
